<svg width="72" height="35" viewBox="0 0 72 35" fill="none" xmlns="http://www.w3.org/2000/svg">
<path d="M18.7606 31.6479L31.4789 18.1408C32.5305 17.0235 33.385 16.0211 34.0423 15.1338C34.6995 14.2465 35.1761 13.4085 35.4718 12.6197C35.7676 11.831 35.9155 11.0258 35.9155 10.2042C35.9155 8.65963 35.4061 7.46009 34.3873 6.60563C33.4014 5.71831 32.1362 5.27465 30.5916 5.27465C28.9484 5.27465 27.5024 5.68545 26.2535 6.50704C25.0047 7.32864 23.8873 8.61033 22.9014 10.3521L18.9578 7.09859C20.3052 4.76526 21.9648 3.00704 23.9366 1.82394C25.9085 0.607981 28.1925 0 30.7887 0C32.9249 0 34.7981 0.42723 36.4085 1.28169C38.0188 2.13615 39.2676 3.33568 40.1549 4.88028C41.0423 6.39202 41.4859 8.15024 41.4859 10.1549C41.4859 11.6009 41.3052 12.8991 40.9437 14.0493C40.615 15.1667 40.0399 16.3005 39.2183 17.4507C38.3967 18.5681 37.2629 19.8826 35.8169 21.3944L26.0563 31.5L18.7606 31.6479ZM18.7606 35V31.6479L23.6409 29.9225H42.1761V35H18.7606Z" fill="url(#paint0_linear_3_92)"/>
<path d="M39.6902 34.9997L53.8873 0.492676H57.831L71.9296 34.9997H65.8169L54.7747 7.04901H56.8451L45.7042 34.9997H39.6902ZM46.6902 28.3448V23.4152H64.9789V28.3448H46.6902Z" fill="#8FD2FD"/>
<path d="M3.89437 21.9856V17.0561H12.5211C13.7042 17.0561 14.7394 16.826 15.6268 16.3659C16.5469 15.873 17.27 15.1993 17.7958 14.3448C18.3216 13.4575 18.5845 12.4223 18.5845 11.2392C18.5845 10.0561 18.3216 9.03728 17.7958 8.18282C17.27 7.29549 16.5469 6.62178 15.6268 6.16169C14.7394 5.66873 13.7042 5.42225 12.5211 5.42225H3.89437V0.492676H12.8169C14.9859 0.492676 16.9249 0.936338 18.6338 1.82366C20.3756 2.71099 21.7394 3.95981 22.7254 5.57014C23.7441 7.18047 24.2535 9.07014 24.2535 11.2392C24.2535 13.4082 23.7441 15.2978 22.7254 16.9082C21.7394 18.5185 20.3756 19.7673 18.6338 20.6546C16.9249 21.542 14.9859 21.9856 12.8169 21.9856H3.89437ZM0 34.9997V0.492676H5.66901V34.9997H0Z" fill="#0072BB"/>
<defs>
<linearGradient id="paint0_linear_3_92" x1="18.7606" y1="0" x2="51.1118" y2="21.6434" gradientUnits="userSpaceOnUse">
<stop stop-color="#0072BB"/>
<stop offset="1" stop-color="#8FD2FD"/>
</linearGradient>
</defs>
</svg>
